<svg xmlns="http://www.w3.org/2000/svg" version="1.1" xmlns:xlink="http://www.w3.org/1999/xlink"
    xmlns:svgjs="http://svgjs.dev/svgjs" width="1440" height="900" preserveAspectRatio="none"
    viewBox="0 0 1440 900">
    <g mask="url(&quot;#SvgjsMask1111&quot;)" fill="none">
        <rect width="1440" height="900" x="0" y="0" fill="#0e2a47"></rect>
        <path
            d="M0,483.397C125.952,506.211,254.018,631.467,366.177,569.783C476.051,509.356,450.578,341.146,480.204,219.302C504.125,120.92,521.688,26.043,523.003,-75.196C524.549,-194.209,556.329,-325.492,488.552,-423.332C419.721,-522.694,288.822,-555.206,171.198,-583.045C58.204,-609.788,-63.001,-624.143,-170.072,-579.213C-272.617,-536.182,-337.421,-438.013,-397.474,-344.413C-450.812,-261.28,-474.482,-167.719,-495.942,-71.306C-519.15,32.958,-567,141.675,-527.786,241.032C-488.15,341.457,-387.928,405.905,-289.814,450.96C-199.648,492.365,-97.629,465.713,0,483.397"
            fill="#0a1f35"></path>
        <path
            d="M1440 1316.24C1524.645 1317.5520000000001 1605.4470000000001 1307.612 1686.71 1283.888 1796.278 1251.9 1945.641 1256.349 1996.0030000000002 1153.9180000000001 2045.987 1052.256 1929.806 943.907 1908.5819999999999 832.628 1888.7069999999999 728.418 1940.567 606.421 1875.588 522.5609999999999 1810.475 438.527 1689.305 417.621 1583.116 412.59 1489.755 408.166 1413.142 478.105 1321.465 496.305 1216.713 517.1 1094.853 463.005 1009.0260000000001 526.559 921.813 591.139 898.558 712.5219999999999 884.207 820.0889999999999 869.955 926.916 866.916 1045.034 928.011 1133.817 986.918 1219.42 1100.271 1241.439 1198.156 1276.316 1276.713 1304.306 1356.615 1314.9479999999999 1440 1316.24"
            fill="#12355a"></path>
    </g>
    <defs>
        <mask id="SvgjsMask1111">
            <rect width="1440" height="900" fill="#ffffff"></rect>
        </mask>
    </defs>
</svg>