<svg xmlns="http://www.w3.org/2000/svg" version="1.1" xmlns:xlink="http://www.w3.org/1999/xlink" xmlns:svgjs="http://svgjs.dev/svgjs" width="2000" height="5000" preserveAspectRatio="none" viewBox="0 0 2000 5000"><g mask="url(&quot;#SvgjsMask2763&quot;)" fill="none"><rect width="2000" height="5000" x="0" y="0" fill="url(&quot;#SvgjsLinearGradient2764&quot;)"></rect><use xlink:href="#SvgjsSymbol2771" x="0" y="0"></use><use xlink:href="#SvgjsSymbol2771" x="0" y="720"></use><use xlink:href="#SvgjsSymbol2771" x="0" y="1440"></use><use xlink:href="#SvgjsSymbol2771" x="0" y="2160"></use><use xlink:href="#SvgjsSymbol2771" x="0" y="2880"></use><use xlink:href="#SvgjsSymbol2771" x="0" y="3600"></use><use xlink:href="#SvgjsSymbol2771" x="0" y="4320"></use><use xlink:href="#SvgjsSymbol2771" x="720" y="0"></use><use xlink:href="#SvgjsSymbol2771" x="720" y="720"></use><use xlink:href="#SvgjsSymbol2771" x="720" y="1440"></use><use xlink:href="#SvgjsSymbol2771" x="720" y="2160"></use><use xlink:href="#SvgjsSymbol2771" x="720" y="2880"></use><use xlink:href="#SvgjsSymbol2771" x="720" y="3600"></use><use xlink:href="#SvgjsSymbol2771" x="720" y="4320"></use><use xlink:href="#SvgjsSymbol2771" x="1440" y="0"></use><use xlink:href="#SvgjsSymbol2771" x="1440" y="720"></use><use xlink:href="#SvgjsSymbol2771" x="1440" y="1440"></use><use xlink:href="#SvgjsSymbol2771" x="1440" y="2160"></use><use xlink:href="#SvgjsSymbol2771" x="1440" y="2880"></use><use xlink:href="#SvgjsSymbol2771" x="1440" y="3600"></use><use xlink:href="#SvgjsSymbol2771" x="1440" y="4320"></use></g><defs><mask id="SvgjsMask2763"><rect width="2000" height="5000" fill="#ffffff"></rect></mask><linearGradient x1="0%" y1="50%" x2="100%" y2="50%" gradientUnits="userSpaceOnUse" id="SvgjsLinearGradient2764"><stop stop-color="#0e2a47" offset="0"></stop><stop stop-color="rgba(0, 0, 0, 1)" offset="1"></stop></linearGradient><path d="M-1 0 a1 1 0 1 0 2 0 a1 1 0 1 0 -2 0z" id="SvgjsPath2768"></path><path d="M-3 0 a3 3 0 1 0 6 0 a3 3 0 1 0 -6 0z" id="SvgjsPath2769"></path><path d="M-5 0 a5 5 0 1 0 10 0 a5 5 0 1 0 -10 0z" id="SvgjsPath2765"></path><path d="M2 -2 L-2 2z" id="SvgjsPath2767"></path><path d="M6 -6 L-6 6z" id="SvgjsPath2766"></path><path d="M30 -30 L-30 30z" id="SvgjsPath2770"></path></defs><symbol id="SvgjsSymbol2771"><use xlink:href="#SvgjsPath2765" x="30" y="30" stroke="rgba(111, 204, 0, 1)"></use><use xlink:href="#SvgjsPath2765" x="30" y="90" stroke="rgba(111, 204, 0, 1)"></use><use xlink:href="#SvgjsPath2766" x="30" y="150" stroke="rgba(111, 204, 0, 1)"></use><use xlink:href="#SvgjsPath2766" x="30" y="210" stroke="rgba(111, 204, 0, 1)"></use><use xlink:href="#SvgjsPath2765" x="30" y="270" stroke="rgba(111, 204, 0, 1)"></use><use xlink:href="#SvgjsPath2766" x="30" y="330" stroke="rgba(111, 204, 0, 1)"></use><use xlink:href="#SvgjsPath2765" x="30" y="390" stroke="rgba(111, 204, 0, 1)"></use><use xlink:href="#SvgjsPath2766" x="30" y="450" stroke="rgba(111, 204, 0, 1)"></use><use xlink:href="#SvgjsPath2766" x="30" y="510" stroke="rgba(111, 204, 0, 1)"></use><use xlink:href="#SvgjsPath2765" x="30" y="570" stroke="rgba(111, 204, 0, 1)"></use><use xlink:href="#SvgjsPath2767" x="30" y="630" stroke="rgba(111, 204, 0, 1)"></use><use xlink:href="#SvgjsPath2767" x="30" y="690" stroke="rgba(111, 204, 0, 1)"></use><use xlink:href="#SvgjsPath2766" x="90" y="30" stroke="rgba(111, 204, 0, 1)"></use><use xlink:href="#SvgjsPath2765" x="90" y="90" stroke="rgba(111, 204, 0, 1)"></use><use xlink:href="#SvgjsPath2767" x="90" y="150" stroke="rgba(111, 204, 0, 1)"></use><use xlink:href="#SvgjsPath2767" x="90" y="210" stroke="rgba(111, 204, 0, 1)"></use><use xlink:href="#SvgjsPath2767" x="90" y="270" stroke="rgba(111, 204, 0, 1)"></use><use xlink:href="#SvgjsPath2766" x="90" y="330" stroke="rgba(111, 204, 0, 1)"></use><use xlink:href="#SvgjsPath2767" x="90" y="390" stroke="rgba(111, 204, 0, 1)"></use><use xlink:href="#SvgjsPath2768" x="90" y="450" stroke="rgba(111, 204, 0, 1)"></use><use xlink:href="#SvgjsPath2765" x="90" y="510" stroke="rgba(111, 204, 0, 1)"></use><use xlink:href="#SvgjsPath2765" x="90" y="570" stroke="rgba(111, 204, 0, 1)"></use><use xlink:href="#SvgjsPath2766" x="90" y="630" stroke="rgba(111, 204, 0, 1)"></use><use xlink:href="#SvgjsPath2768" x="90" y="690" stroke="rgba(111, 204, 0, 1)"></use><use xlink:href="#SvgjsPath2766" x="150" y="30" stroke="rgba(111, 204, 0, 1)"></use><use xlink:href="#SvgjsPath2766" x="150" y="90" stroke="rgba(111, 204, 0, 1)"></use><use xlink:href="#SvgjsPath2766" x="150" y="150" stroke="rgba(111, 204, 0, 1)"></use><use xlink:href="#SvgjsPath2767" x="150" y="210" stroke="rgba(111, 204, 0, 1)"></use><use xlink:href="#SvgjsPath2765" x="150" y="270" stroke="rgba(111, 204, 0, 1)"></use><use xlink:href="#SvgjsPath2766" x="150" y="330" stroke="rgba(111, 204, 0, 1)"></use><use xlink:href="#SvgjsPath2765" x="150" y="390" stroke="rgba(111, 204, 0, 1)"></use><use xlink:href="#SvgjsPath2765" x="150" y="450" stroke="rgba(111, 204, 0, 1)"></use><use xlink:href="#SvgjsPath2766" x="150" y="510" stroke="rgba(111, 204, 0, 1)"></use><use xlink:href="#SvgjsPath2767" x="150" y="570" stroke="rgba(111, 204, 0, 1)"></use><use xlink:href="#SvgjsPath2765" x="150" y="630" stroke="rgba(111, 204, 0, 1)"></use><use xlink:href="#SvgjsPath2766" x="150" y="690" stroke="rgba(111, 204, 0, 1)"></use><use xlink:href="#SvgjsPath2766" x="210" y="30" stroke="rgba(111, 204, 0, 1)"></use><use xlink:href="#SvgjsPath2766" x="210" y="90" stroke="rgba(111, 204, 0, 1)"></use><use xlink:href="#SvgjsPath2765" x="210" y="150" stroke="rgba(111, 204, 0, 1)"></use><use xlink:href="#SvgjsPath2765" x="210" y="210" stroke="rgba(111, 204, 0, 1)"></use><use xlink:href="#SvgjsPath2769" x="210" y="270" stroke="rgba(111, 204, 0, 1)"></use><use xlink:href="#SvgjsPath2766" x="210" y="330" stroke="rgba(111, 204, 0, 1)"></use><use xlink:href="#SvgjsPath2767" x="210" y="390" stroke="rgba(111, 204, 0, 1)"></use><use xlink:href="#SvgjsPath2767" x="210" y="450" stroke="rgba(111, 204, 0, 1)"></use><use xlink:href="#SvgjsPath2765" x="210" y="510" stroke="rgba(111, 204, 0, 1)"></use><use xlink:href="#SvgjsPath2766" x="210" y="570" stroke="rgba(111, 204, 0, 1)"></use><use xlink:href="#SvgjsPath2766" x="210" y="630" stroke="rgba(111, 204, 0, 1)"></use><use xlink:href="#SvgjsPath2766" x="210" y="690" stroke="rgba(111, 204, 0, 1)"></use><use xlink:href="#SvgjsPath2766" x="270" y="30" stroke="rgba(111, 204, 0, 1)"></use><use xlink:href="#SvgjsPath2768" x="270" y="90" stroke="rgba(111, 204, 0, 1)"></use><use xlink:href="#SvgjsPath2767" x="270" y="150" stroke="rgba(111, 204, 0, 1)"></use><use xlink:href="#SvgjsPath2766" x="270" y="210" stroke="rgba(111, 204, 0, 1)"></use><use xlink:href="#SvgjsPath2765" x="270" y="270" stroke="rgba(111, 204, 0, 1)"></use><use xlink:href="#SvgjsPath2767" x="270" y="330" stroke="rgba(111, 204, 0, 1)"></use><use xlink:href="#SvgjsPath2765" x="270" y="390" stroke="rgba(111, 204, 0, 1)"></use><use xlink:href="#SvgjsPath2766" x="270" y="450" stroke="rgba(111, 204, 0, 1)"></use><use xlink:href="#SvgjsPath2765" x="270" y="510" stroke="rgba(111, 204, 0, 1)"></use><use xlink:href="#SvgjsPath2765" x="270" y="570" stroke="rgba(111, 204, 0, 1)"></use><use xlink:href="#SvgjsPath2767" x="270" y="630" stroke="rgba(111, 204, 0, 1)"></use><use xlink:href="#SvgjsPath2765" x="270" y="690" stroke="rgba(111, 204, 0, 1)"></use><use xlink:href="#SvgjsPath2766" x="330" y="30" stroke="rgba(111, 204, 0, 1)"></use><use xlink:href="#SvgjsPath2768" x="330" y="90" stroke="rgba(111, 204, 0, 1)"></use><use xlink:href="#SvgjsPath2767" x="330" y="150" stroke="rgba(111, 204, 0, 1)"></use><use xlink:href="#SvgjsPath2765" x="330" y="210" stroke="rgba(111, 204, 0, 1)"></use><use xlink:href="#SvgjsPath2766" x="330" y="270" stroke="rgba(111, 204, 0, 1)"></use><use xlink:href="#SvgjsPath2765" x="330" y="330" stroke="rgba(111, 204, 0, 1)"></use><use xlink:href="#SvgjsPath2767" x="330" y="390" stroke="rgba(111, 204, 0, 1)"></use><use xlink:href="#SvgjsPath2768" x="330" y="450" stroke="rgba(111, 204, 0, 1)"></use><use xlink:href="#SvgjsPath2765" x="330" y="510" stroke="rgba(111, 204, 0, 1)"></use><use xlink:href="#SvgjsPath2769" x="330" y="570" stroke="rgba(111, 204, 0, 1)"></use><use xlink:href="#SvgjsPath2766" x="330" y="630" stroke="rgba(111, 204, 0, 1)"></use><use xlink:href="#SvgjsPath2767" x="330" y="690" stroke="rgba(111, 204, 0, 1)"></use><use xlink:href="#SvgjsPath2769" x="390" y="30" stroke="rgba(111, 204, 0, 1)"></use><use xlink:href="#SvgjsPath2766" x="390" y="90" stroke="rgba(111, 204, 0, 1)"></use><use xlink:href="#SvgjsPath2768" x="390" y="150" stroke="rgba(111, 204, 0, 1)"></use><use xlink:href="#SvgjsPath2769" x="390" y="210" stroke="rgba(111, 204, 0, 1)"></use><use xlink:href="#SvgjsPath2766" x="390" y="270" stroke="rgba(111, 204, 0, 1)"></use><use xlink:href="#SvgjsPath2768" x="390" y="330" stroke="rgba(111, 204, 0, 1)"></use><use xlink:href="#SvgjsPath2766" x="390" y="390" stroke="rgba(111, 204, 0, 1)"></use><use xlink:href="#SvgjsPath2766" x="390" y="450" stroke="rgba(111, 204, 0, 1)"></use><use xlink:href="#SvgjsPath2765" x="390" y="510" stroke="rgba(111, 204, 0, 1)"></use><use xlink:href="#SvgjsPath2766" x="390" y="570" stroke="rgba(111, 204, 0, 1)"></use><use xlink:href="#SvgjsPath2765" x="390" y="630" stroke="rgba(111, 204, 0, 1)"></use><use xlink:href="#SvgjsPath2766" x="390" y="690" stroke="rgba(111, 204, 0, 1)"></use><use xlink:href="#SvgjsPath2768" x="450" y="30" stroke="rgba(111, 204, 0, 1)"></use><use xlink:href="#SvgjsPath2770" x="450" y="90" stroke="rgba(111, 204, 0, 1)" stroke-width="3"></use><use xlink:href="#SvgjsPath2765" x="450" y="150" stroke="rgba(111, 204, 0, 1)"></use><use xlink:href="#SvgjsPath2766" x="450" y="210" stroke="rgba(111, 204, 0, 1)"></use><use xlink:href="#SvgjsPath2770" x="450" y="270" stroke="rgba(111, 204, 0, 1)" stroke-width="3"></use><use xlink:href="#SvgjsPath2770" x="450" y="330" stroke="rgba(111, 204, 0, 1)" stroke-width="3"></use><use xlink:href="#SvgjsPath2766" x="450" y="390" stroke="rgba(111, 204, 0, 1)"></use><use xlink:href="#SvgjsPath2765" x="450" y="450" stroke="rgba(111, 204, 0, 1)"></use><use xlink:href="#SvgjsPath2765" x="450" y="510" stroke="rgba(111, 204, 0, 1)"></use><use xlink:href="#SvgjsPath2769" x="450" y="570" stroke="rgba(111, 204, 0, 1)"></use><use xlink:href="#SvgjsPath2766" x="450" y="630" stroke="rgba(111, 204, 0, 1)"></use><use xlink:href="#SvgjsPath2765" x="450" y="690" stroke="rgba(111, 204, 0, 1)"></use><use xlink:href="#SvgjsPath2768" x="510" y="30" stroke="rgba(111, 204, 0, 1)"></use><use xlink:href="#SvgjsPath2765" x="510" y="90" stroke="rgba(111, 204, 0, 1)"></use><use xlink:href="#SvgjsPath2768" x="510" y="150" stroke="rgba(111, 204, 0, 1)"></use><use xlink:href="#SvgjsPath2765" x="510" y="210" stroke="rgba(111, 204, 0, 1)"></use><use xlink:href="#SvgjsPath2767" x="510" y="270" stroke="rgba(111, 204, 0, 1)"></use><use xlink:href="#SvgjsPath2765" x="510" y="330" stroke="rgba(111, 204, 0, 1)"></use><use xlink:href="#SvgjsPath2767" x="510" y="390" stroke="rgba(111, 204, 0, 1)"></use><use xlink:href="#SvgjsPath2765" x="510" y="450" stroke="rgba(111, 204, 0, 1)"></use><use xlink:href="#SvgjsPath2765" x="510" y="510" stroke="rgba(111, 204, 0, 1)"></use><use xlink:href="#SvgjsPath2765" x="510" y="570" stroke="rgba(111, 204, 0, 1)"></use><use xlink:href="#SvgjsPath2765" x="510" y="630" stroke="rgba(111, 204, 0, 1)"></use><use xlink:href="#SvgjsPath2767" x="510" y="690" stroke="rgba(111, 204, 0, 1)"></use><use xlink:href="#SvgjsPath2768" x="570" y="30" stroke="rgba(111, 204, 0, 1)"></use><use xlink:href="#SvgjsPath2765" x="570" y="90" stroke="rgba(111, 204, 0, 1)"></use><use xlink:href="#SvgjsPath2765" x="570" y="150" stroke="rgba(111, 204, 0, 1)"></use><use xlink:href="#SvgjsPath2765" x="570" y="210" stroke="rgba(111, 204, 0, 1)"></use><use xlink:href="#SvgjsPath2765" x="570" y="270" stroke="rgba(111, 204, 0, 1)"></use><use xlink:href="#SvgjsPath2765" x="570" y="330" stroke="rgba(111, 204, 0, 1)"></use><use xlink:href="#SvgjsPath2769" x="570" y="390" stroke="rgba(111, 204, 0, 1)"></use><use xlink:href="#SvgjsPath2770" x="570" y="450" stroke="rgba(111, 204, 0, 1)" stroke-width="3"></use><use xlink:href="#SvgjsPath2766" x="570" y="510" stroke="rgba(111, 204, 0, 1)"></use><use xlink:href="#SvgjsPath2767" x="570" y="570" stroke="rgba(111, 204, 0, 1)"></use><use xlink:href="#SvgjsPath2768" x="570" y="630" stroke="rgba(111, 204, 0, 1)"></use><use xlink:href="#SvgjsPath2766" x="570" y="690" stroke="rgba(111, 204, 0, 1)"></use><use xlink:href="#SvgjsPath2768" x="630" y="30" stroke="rgba(111, 204, 0, 1)"></use><use xlink:href="#SvgjsPath2765" x="630" y="90" stroke="rgba(111, 204, 0, 1)"></use><use xlink:href="#SvgjsPath2770" x="630" y="150" stroke="rgba(111, 204, 0, 1)" stroke-width="3"></use><use xlink:href="#SvgjsPath2768" x="630" y="210" stroke="rgba(111, 204, 0, 1)"></use><use xlink:href="#SvgjsPath2765" x="630" y="270" stroke="rgba(111, 204, 0, 1)"></use><use xlink:href="#SvgjsPath2769" x="630" y="330" stroke="rgba(111, 204, 0, 1)"></use><use xlink:href="#SvgjsPath2766" x="630" y="390" stroke="rgba(111, 204, 0, 1)"></use><use xlink:href="#SvgjsPath2765" x="630" y="450" stroke="rgba(111, 204, 0, 1)"></use><use xlink:href="#SvgjsPath2767" x="630" y="510" stroke="rgba(111, 204, 0, 1)"></use><use xlink:href="#SvgjsPath2768" x="630" y="570" stroke="rgba(111, 204, 0, 1)"></use><use xlink:href="#SvgjsPath2765" x="630" y="630" stroke="rgba(111, 204, 0, 1)"></use><use xlink:href="#SvgjsPath2766" x="630" y="690" stroke="rgba(111, 204, 0, 1)"></use><use xlink:href="#SvgjsPath2766" x="690" y="30" stroke="rgba(111, 204, 0, 1)"></use><use xlink:href="#SvgjsPath2766" x="690" y="90" stroke="rgba(111, 204, 0, 1)"></use><use xlink:href="#SvgjsPath2766" x="690" y="150" stroke="rgba(111, 204, 0, 1)"></use><use xlink:href="#SvgjsPath2765" x="690" y="210" stroke="rgba(111, 204, 0, 1)"></use><use xlink:href="#SvgjsPath2765" x="690" y="270" stroke="rgba(111, 204, 0, 1)"></use><use xlink:href="#SvgjsPath2765" x="690" y="330" stroke="rgba(111, 204, 0, 1)"></use><use xlink:href="#SvgjsPath2769" x="690" y="390" stroke="rgba(111, 204, 0, 1)"></use><use xlink:href="#SvgjsPath2766" x="690" y="450" stroke="rgba(111, 204, 0, 1)"></use><use xlink:href="#SvgjsPath2767" x="690" y="510" stroke="rgba(111, 204, 0, 1)"></use><use xlink:href="#SvgjsPath2768" x="690" y="570" stroke="rgba(111, 204, 0, 1)"></use><use xlink:href="#SvgjsPath2766" x="690" y="630" stroke="rgba(111, 204, 0, 1)"></use><use xlink:href="#SvgjsPath2766" x="690" y="690" stroke="rgba(111, 204, 0, 1)"></use></symbol></svg>